<svg xmlns="http://www.w3.org/2000/svg" xmlns:xlink="http://www.w3.org/1999/xlink" width="6912" zoomAndPan="magnify" viewBox="0 0 5184 2592.000001" height="3456" preserveAspectRatio="xMidYMid meet" version="1.0"><defs><g/><clipPath id="d3987b6c66"><path d="M 107.015625 114.847656 L 5105.332031 114.847656 L 5105.332031 2537.164062 L 107.015625 2537.164062 Z M 107.015625 114.847656 " clip-rule="nonzero"/></clipPath></defs><g clip-path="url(#d3987b6c66)"><path stroke-linecap="butt" transform="matrix(0.749681, 0, 0, 0.749653, 107.016457, 114.847773)" fill="none" stroke-linejoin="miter" d="M -0.00110982 -0.000155876 L 6667.258241 -0.000155876 L 6667.258241 3231.251255 L -0.00110982 3231.251255 L -0.00110982 -0.000155876 " stroke="#ffffff" stroke-width="200" stroke-opacity="1" stroke-miterlimit="4"/></g><g fill="#ffffff" fill-opacity="1"><g transform="translate(460.491834, 1607.444677)"><g><path d="M 73.378906 0 L 360.785156 0 C 484.832031 0 568.695312 -68.136719 568.695312 -171.21875 C 568.695312 -236.738281 534.625 -289.152344 476.96875 -314.484375 C 523.269531 -341.566406 550.347656 -389.613281 550.347656 -447.269531 C 550.347656 -547.730469 470.855469 -611.5 346.808594 -611.5 L 73.378906 -611.5 Z M 210.53125 -110.070312 L 210.53125 -256.828125 L 339.820312 -256.828125 C 394.855469 -256.828125 426.300781 -229.75 426.300781 -183.449219 C 426.300781 -137.152344 394.855469 -110.070312 339.820312 -110.070312 Z M 210.53125 -362.53125 L 210.53125 -501.429688 L 325.839844 -501.429688 C 379.128906 -501.429688 408.832031 -476.96875 408.832031 -432.417969 C 408.832031 -387.867188 379.128906 -362.53125 325.839844 -362.53125 Z M 210.53125 -362.53125 "/></g></g></g><g fill="#ffffff" fill-opacity="1"><g transform="translate(1128.772282, 1607.444677)"><g><path d="M 73.378906 0 L 212.277344 0 L 212.277344 -611.5 L 73.378906 -611.5 Z M 73.378906 0 "/></g></g></g><g fill="#ffffff" fill-opacity="1"><g transform="translate(1480.820682, 1607.444677)"><g><path d="M 286.53125 12.230469 C 431.542969 12.230469 520.648438 -56.78125 520.648438 -172.09375 C 520.648438 -269.058594 456.878906 -326.714844 304.875 -362.53125 C 211.402344 -384.371094 179.082031 -407.957031 179.082031 -445.519531 C 179.082031 -485.707031 214.898438 -510.164062 273.425781 -510.164062 C 337.199219 -510.164062 375.636719 -476.96875 375.636719 -421.933594 L 509.292969 -421.933594 C 509.292969 -545.109375 416.691406 -623.730469 271.679688 -623.730469 C 131.035156 -623.730469 43.679688 -554.71875 43.679688 -442.898438 C 43.679688 -343.3125 110.945312 -283.910156 254.210938 -253.335938 C 340.691406 -234.992188 380.003906 -209.65625 380.003906 -166.851562 C 380.003906 -125.792969 343.3125 -102.207031 285.65625 -102.207031 C 218.394531 -102.207031 174.714844 -136.277344 174.714844 -194.804688 L 38.4375 -194.804688 C 38.4375 -68.136719 132.78125 12.230469 286.53125 12.230469 Z M 286.53125 12.230469 "/></g></g></g><g fill="#ffffff" fill-opacity="1"><g transform="translate(2107.169584, 1607.444677)"><g><path d="M 451.636719 0 L 590.535156 0 L 590.535156 -611.5 L 451.636719 -611.5 L 451.636719 -376.507812 L 212.277344 -376.507812 L 212.277344 -611.5 L 73.378906 -611.5 L 73.378906 0 L 212.277344 0 L 212.277344 -246.347656 L 451.636719 -246.347656 Z M 451.636719 0 "/></g></g></g><g fill="#ffffff" fill-opacity="1"><g transform="translate(2837.473496, 1607.444677)"><g><path d="M 73.378906 0 L 484.832031 0 L 484.832031 -117.933594 L 211.402344 -117.933594 L 211.402344 -251.589844 L 451.636719 -251.589844 L 451.636719 -367.773438 L 211.402344 -367.773438 L 211.402344 -494.441406 L 475.222656 -494.441406 L 475.222656 -611.5 L 73.378906 -611.5 Z M 73.378906 0 "/></g></g></g><g fill="#ffffff" fill-opacity="1"><g transform="translate(3433.24771, 1607.444677)"><g><path d="M 286.53125 12.230469 C 431.542969 12.230469 520.648438 -56.78125 520.648438 -172.09375 C 520.648438 -269.058594 456.878906 -326.714844 304.875 -362.53125 C 211.402344 -384.371094 179.082031 -407.957031 179.082031 -445.519531 C 179.082031 -485.707031 214.898438 -510.164062 273.425781 -510.164062 C 337.199219 -510.164062 375.636719 -476.96875 375.636719 -421.933594 L 509.292969 -421.933594 C 509.292969 -545.109375 416.691406 -623.730469 271.679688 -623.730469 C 131.035156 -623.730469 43.679688 -554.71875 43.679688 -442.898438 C 43.679688 -343.3125 110.945312 -283.910156 254.210938 -253.335938 C 340.691406 -234.992188 380.003906 -209.65625 380.003906 -166.851562 C 380.003906 -125.792969 343.3125 -102.207031 285.65625 -102.207031 C 218.394531 -102.207031 174.714844 -136.277344 174.714844 -194.804688 L 38.4375 -194.804688 C 38.4375 -68.136719 132.78125 12.230469 286.53125 12.230469 Z M 286.53125 12.230469 "/></g></g></g><g fill="#ffffff" fill-opacity="1"><g transform="translate(4059.596799, 1607.444677)"><g><path d="M 451.636719 0 L 590.535156 0 L 590.535156 -611.5 L 451.636719 -611.5 L 451.636719 -376.507812 L 212.277344 -376.507812 L 212.277344 -611.5 L 73.378906 -611.5 L 73.378906 0 L 212.277344 0 L 212.277344 -246.347656 L 451.636719 -246.347656 Z M 451.636719 0 "/></g></g></g></svg>